<svg width="22" height="22" viewBox="0 0 100 100" fill="none" xmlns="http://www.w3.org/2000/svg">
  <path d="M50 8C36 8 26 16 24 26C18 27 12 32 12 40C12 46 15.5 51.5 20.5 54.5C20.2 56 20 57.5 20 59C20 68 27 75.5 36 77.5L36 86C36 87.1 36.9 88 38 88L62 88C63.1 88 64 87.1 64 86L64 77.5C73 75.5 80 68 80 59C80 57.5 79.8 56 79.5 54.5C84.5 51.5 88 46 88 40C88 32 82 27 76 26C74 16 64 8 50 8Z" stroke="#111111" stroke-width="4.5" fill="none" stroke-linejoin="round"/>
  <line x1="50" y1="16" x2="50" y2="78" stroke="#111111" stroke-width="3" stroke-linecap="round"/>
  <path d="M50 28 C44 28 36 32 34 40" stroke="#111111" stroke-width="3" stroke-linecap="round" fill="none"/>
  <path d="M50 48 C42 46 34 50 32 58" stroke="#111111" stroke-width="3" stroke-linecap="round" fill="none"/>
  <path d="M50 28 C56 28 64 32 66 40" stroke="#111111" stroke-width="3" stroke-linecap="round" fill="none"/>
  <path d="M50 48 C58 46 66 50 68 58" stroke="#111111" stroke-width="3" stroke-linecap="round" fill="none"/>
  <path d="M44 80 L50 95 L56 80" stroke="#111111" stroke-width="3.5" stroke-linejoin="round" fill="none"/>
  <line x1="50" y1="86" x2="50" y2="95" stroke="#111111" stroke-width="2" stroke-linecap="round"/>
</svg>
