<svg width="22" height="22" viewBox="0 0 100 100" fill="none" xmlns="http://www.w3.org/2000/svg">
  <!-- Brain + pen, thinner strokes for crisp 22px tray icon -->
  <path d="M50 10C37 10 27 17 25 26C19 27 13 32 13 40C13 46 16 51 21 54C20.5 56 20 57.5 20 59C20 68 27 75 36 77L36 85C36 86 37 87 38 87L62 87C63 87 64 86 64 85L64 77C73 75 80 68 80 59C80 57.5 79.5 56 79 54C84 51 87 46 87 40C87 32 81 27 76 26C74 17 64 10 50 10Z" stroke="#111111" stroke-width="2.5" fill="none" stroke-linejoin="round"/>
  <line x1="50" y1="18" x2="50" y2="76" stroke="#111111" stroke-width="1.8" stroke-linecap="round"/>
  <path d="M50 28 C44 28 36 32 34 40" stroke="#111111" stroke-width="1.8" stroke-linecap="round" fill="none"/>
  <path d="M50 48 C42 46 34 50 32 58" stroke="#111111" stroke-width="1.8" stroke-linecap="round" fill="none"/>
  <path d="M50 28 C56 28 64 32 66 40" stroke="#111111" stroke-width="1.8" stroke-linecap="round" fill="none"/>
  <path d="M50 48 C58 46 66 50 68 58" stroke="#111111" stroke-width="1.8" stroke-linecap="round" fill="none"/>
  <path d="M44 79 L50 94 L56 79" stroke="#111111" stroke-width="2" stroke-linejoin="round" fill="none"/>
  <line x1="50" y1="85" x2="50" y2="94" stroke="#111111" stroke-width="1.2" stroke-linecap="round"/>
</svg>
